<?xml version="1.0" encoding="UTF-8"?>
<svg id="Layer_3" data-name="Layer 3" xmlns="http://www.w3.org/2000/svg" viewBox="0 0 1024 1024">
  <defs>
    <style>
      .cls-1 {
        stroke-linejoin: round;
      }

      .cls-1, .cls-2 {
        stroke-linecap: round;
      }

      .cls-1, .cls-2, .cls-3 {
        fill: none;
        stroke: #00d3c1;
        stroke-width: 60px;
      }

      .cls-2, .cls-3 {
        stroke-miterlimit: 10;
      }

      .cls-4 {
        fill: #00d3c1;
      }
    </style>
  </defs>
  <path class="cls-2" d="M783,757h81c59.65,0,108-48.35,108-108V152c0-59.65-48.35-108-108-108H160c-59.65,0-108,48.35-108,108v497c0,59.65,48.35,108,108,108h381.09"/>
  <polygon class="cls-1" points="492.92 519.43 368.89 643.91 280.34 222.34 659.33 437.5 492.92 519.43"/>
  <path class="cls-3" d="M487.6,516.38l169.47,197.95c23.36,27.28,57.48,42.99,93.4,42.99h51.27"/>
  <path class="cls-4" d="M760.83,1002.83v7.01c0,6.16-5,11.16-11.16,11.16H251.17c-6.16,0-11.16-5-11.16-11.16v-7.01c0-40.22,32.61-72.83,72.83-72.83h159.39v-101.34c0-4.85,3.93-8.78,8.78-8.78h55.88c4.85,0,8.78,3.93,8.78,8.78v101.34h142.33c40.22,0,72.83,32.61,72.83,72.83Z"/>
</svg>